{"title":"Locke 2013 BRRip XviD AC3 5.1 titler","uid":10642213,"size":1203368301,"categoryP":"video","categoryS":"movies","magnet":"?xt=urn:btih:2099db65a7e818700ffb662ff242cc3fc33294ab&amp;dn=Locke+2013+BRRip+XviD+AC3+5.1+titler&amp;tr=udp%3A%2F%2Ftracker.openbittorrent.com%3A80&amp;tr=udp%3A%2F%2Fopen.demonii.com%3A1337&amp;tr=udp%3A%2F%2Ftracker.coppersurfer.tk%3A6969&amp;tr=udp%3A%2F%2Fexodus.desync.com%3A6969","seeders":1,"leechers":0,"uploader":"movieZ.freak","files":5,"time":1406485229,"description":"SOURCE: Locke 2013 BluRay 720p x264 DTS - HDWinG\n\n\n\n &lt;a href=&quot;\nhttp://www.imdb.com/title/tt2692904/&quot; rel=&quot;nofollow&quot; target=&quot;_NEW&quot;&gt;\nhttp://www.imdb.com/title/tt2692904/&lt;/a&gt;\n\n\n\n &lt;a href=&quot;\nhttp://www.rottentomatoes.com/m/locke/&quot; rel=&quot;nofollow&quot; target=&quot;_NEW&quot;&gt;\nhttp://www.rottentomatoes.com/m/locke/&lt;/a&gt;\n\n\n\n &lt;a href=&quot;\nhttp://en.wikipedia.org/wiki/Locke_%28film%29&quot; rel=&quot;nofollow&quot; target=&quot;_NEW&quot;&gt;\nhttp://en.wikipedia.org/wiki/Locke_%28film%29&lt;/a&gt;\n\n\n\n\n\n- SAMPLE: Yes\n\n\n- SUBTITLE: English\n\n\n- LANGUAGE / AUDIO: English\n\n\n\n\n\nSCREENSHOTS:\n-------------------    &lt;a href=&quot;\nhttp://someimage.com/NqLL&quot; rel=&quot;nofollow&quot; target=&quot;_NEW&quot;&gt;\nhttp://someimage.com/NqLL&lt;/a&gt;\n\n\n\n\n\nDIRECTOR: Steven Knight\n\n\n\nCAST: Tom Hardy, Olivia Colman, Ruth Wilson, Andrew Scott, Ben Daniels, Tom Holland, Bill Milner, Alice Lowe,...\n\n\nPLOT:\n-----------\nIvan Locke (Hardy) has worked diligently to craft the life he has envisioned, dedicating himself to the job that he loves and the family he adores. On the eve of the biggest challenge of his career, Ivan receives a phone call that sets in motion a series of events that will unravel his family, job, and soul. All taking place over the course of one absolutely riveting car ride, LOCKE is an exploration of how one decision can lead to the complete collapse of a life. Directed by acclaimed filmmaker Steven Knight (EASTERN PROMISES, DIRTY PRETTY THINGS) and driven by an unforgettable performance by Tom Hardy, LOCKE is a thrillingly unique cinematic experience of a man fighting to salvage all that is important to him.\n\n\n************************************\n\n- Duration: 1h 24mn\n\n- Bit rate: 1397 Kbps\n\n- Res: 720 x 300\n\n- AR: 2.40:1\n\n- FPS: 23.976 fps\n\n- Audio: AC3, 6 channels, 448 Kbps\n\n************************************\n\n\nGeneral\n-------------\nFormat : AVI\nFormat/Info : Audio Video Interleave\nFile size : 1.10 GiB\nDuration : 1h 24mn\nOverall bit rate : 1 854 Kbps\nWriting library : VirtualDub build 35491\n\n\nVideo\n----------\nFormat : MPEG-4 Visual\nFormat profile : Advanced Simple@L5\nFormat settings, BVOP : 2\nFormat settings, QPel : No\nFormat settings, GMC : No warppoints\nFormat settings, Matrix : Default (H.263)\nCodec ID : XVID\nCodec ID/Hint : XviD\nDuration : 1h 24mn\nBit rate : 1397 Kbps\nWidth : 720 pixels\nHeight : 300 pixels\nDisplay aspect ratio : 2.40:1\nFrame rate : 23.976 fps\nColor space : YUV\nChroma subsampling : 4:2:0\nBit depth : 8 bits\nScan type : Progressive\nCompression mode : Lossy\nBits/(Pixel*Frame) : 0.270\nStream size : 848 MiB (75%)\nWriting library : XviD 65\n\n\nAudio\n---------\nFormat : AC-3\nFormat/Info : Audio Coding 3\nMode extension : CM (complete main)\nFormat settings, Endianness : Big\nCodec ID : 2000\nDuration : 1h 24mn\nBit rate mode : Constant\nBit rate : 448 Kbps\nChannel(s) : 6 channels\nChannel positions : Front: L C R, Side: L R, LFE\nSampling rate : 48.0 KHz\nBit depth : 16 bits\nCompression mode : Lossy\nStream size : 272 MiB (24%)\nAlignment : Aligned on interleaves\nInterleave, duration : 42 ms (1.00 video frame)\nInterleave, preload duration : 512 ms","torrent":{"xt":"urn:btih:2099db65a7e818700ffb662ff242cc3fc33294ab","amp;dn":"Locke+2013+BRRip+XviD+AC3+5.1+titler","amp;tr":["udp%3A%2F%2Ftracker.openbittorrent.com%3A80","udp%3A%2F%2Fopen.demonii.com%3A1337","udp%3A%2F%2Ftracker.coppersurfer.tk%3A6969","udp%3A%2F%2Fexodus.desync.com%3A6969"],"infoHash":"2099db65a7e818700ffb662ff242cc3fc33294ab","infoHashBuffer":{"type":"Buffer","data":[32,153,219,101,167,232,24,112,15,251,102,47,242,66,204,63,195,50,148,171]},"announce":[],"urlList":[]}}